# AST/ASF file generated using VICON BodyLanguage
# -----------------------------------------------
:version 1.10
:name VICON
:units
  mass 1.0
  length 0.45
  angle deg
:documentation
   .ast/.asf automatically generated from VICON data using
   VICON BodyBuilder and BodyLanguage model FoxedUp or BRILLIANT.MOD
:root
   order TX TY TZ RX RY RZ
   axis XYZ
   position 0 0 0  
   orientation 0 0 0 
:bonedata
  begin
     id 1 
     name lhipjoint
     direction 0.643824 -0.71708 0.266994 
     length 2.52133 
     axis 0 0 0  XYZ
  end
  begin
     id 2 
     name lfemur
     direction 0.34202 -0.939693 0  
     length 7.51824  
     axis 0 0 20  XYZ
    dof rx ry rz
    limits (-160.0 20.0)
           (-70.0 70.0)
           (-60.0 70.0)
  end
  begin
     id 3 
     name ltibia
     direction 0.34202 -0.939693 0   
     length 7.3685   
     axis 0 0 20   XYZ
    dof rx
    limits (-10.0 170.0)
  end
  begin
     id 4 
     name lfoot
     direction 0.105419 -0.289636 0.951314   
     length 2.20972   
     axis -90 7.62852e-016 20   XYZ
    dof rx rz
    limits (-45.0 90.0)
           (-70.0 20.0)
  end
  begin
     id 5 
     name ltoes
     direction 1.53549e-011 -4.21833e-011 1   
     length 1.10139   
     axis -90 7.62852e-016 20   XYZ
    dof rx
    limits (-90.0 20.0)
  end
  begin
     id 6 
     name rhipjoint
     direction -0.608823 -0.743445 0.276811   
     length 2.43192  
     axis 0 0 0  XYZ 
  end
  begin
     id 7 
     name rfemur
     direction -0.34202 -0.939693 0   
     length 7.69715   
     axis 0 0 -20   XYZ
    dof rx ry rz
    limits (-160.0 20.0)
           (-70.0 70.0)
           (-70.0 60.0)
  end
  begin
     id 8 
     name rtibia
     direction -0.34202 -0.939693 0   
     length 7.44924   
     axis 0 0 -20   XYZ
    dof rx
    limits (-10.0 170.0)
 end
 begin
     id 9 
     name rfoot
     direction -0.103614 -0.284677 0.953007   
     length 2.22623  
     axis -90 -7.62852e-016 -20   XYZ
    dof rx rz
    limits (-45.0 90.0)
           (-20.0 70.0)
  end
  begin
     id 10 
     name rtoes
     direction -1.53537e-011 -4.22026e-011 1   
     length 1.11   
     axis -90 -7.62852e-016 -20   XYZ
    dof rx
    limits (-90.0 20.0)
  end
  begin
     id 11 
     name lowerback
     direction -0.0101212 0.99662 -0.0815298   
     length 2.08277   
     axis 0 0 0   XYZ
    dof rx ry rz
    limits (-20.0 45.0)
           (-30.0 30.0)
           (-30.0 30.0)
  end
  begin
     id 12 
     name upperback
     direction 0.024314 0.999591 -0.0150645   
     length 2.08524   
     axis 0 0 0   XYZ
    dof rx ry rz
    limits (-20.0 45.0)
           (-30.0 30.0)
           (-30.0 30.0)
  end
  begin
     id 13 
     name thorax
     direction 0.0285959 0.999323 0.0231357   
     length 2.09645   
     axis 0 0 0   XYZ
    dof rx ry rz
    limits (-20.0 45.0)
           (-30.0 30.0)
           (-30.0 30.0)
  end
  begin
     id 14 
     name lowerneck
     direction -0.065512 0.979301 0.191515   
     length 1.63798   
     axis 0 0 0   XYZ
    dof rx ry rz
    limits (-20.0 45.0)
           (-30.0 30.0)
           (-30.0 30.0)
  end
  begin
     id 15 
     name upperneck
     direction 0.0498479 0.98191 -0.182667   
     length 1.68731   
     axis 0 0 0   XYZ
    dof rx ry rz
    limits (-20.0 45.0)
           (-30.0 30.0)
           (-30.0 30.0)
  end
  begin
     id 16
     name head
     direction 0.0230358 0.996257 -0.0833175  
     length 1.69785  
     axis 0 0 0   XYZ
    dof rx ry rz
    limits (-20.0 45.0)
           (-30.0 30.0)
           (-30.0 30.0)
  end
  begin
     id 17 
     name lclavicle
     direction 0.967963 0.201165 -0.150269  
     length 3.63976  
     axis 0 0 0   XYZ
    dof ry rz
    limits (-20.0 10.0)
           (0.0 20.0)
  end
  begin
     id 18 
     name lhumerus
     direction 1 -4.48954e-011 -2.92837e-028   
     length 5.32462   
     axis 180 -30 -90   XYZ
    dof rx ry rz
    limits (-60.0 90.0)
           (-90.0 90.0)
           (-90.0 90.0)
  end
  begin
     id 19
     name lradius
     direction 1 -4.48958e-011 -6.39511e-027   
     length 3.48402   
     axis 180 -30 -90   XYZ
    dof rx
    limits (-10.0 170.0)
  end
  begin
     id 20
     name lwrist
     direction 1 -4.48975e-011 -1.1413e-026   
     length 1.74201   
     axis 6.88575e-015 90 90   XYZ
    dof ry
    limits (-180.0 0.0)
 end
  begin
     id 21 
     name lhand
     direction 1 -4.48899e-011 -2.28192e-026   
     length 0.572476   
     axis 1.45643e-014 90 90   XYZ
    dof rx rz
    limits (-90.0 90.0)
           (-45.0 45.0)
  end
  begin
     id 22 
     name lfingers
     direction 1 -4.49155e-011 -4.5684e-026   
     length 0.461545   
     axis 2.91283e-014 90 90   XYZ
    dof rx
    limits (0.0 90.0)
  end
  begin
     id 23
     name lthumb
     direction 0.707107 -6.34943e-011 0.707107   
     length 0.662688   
     axis -90 45 -2.25915e-014   XYZ
    dof rx rz
    limits (-45.0 45.0)
           (-45.0 45.0)
  end
  begin
     id 24 
     name rclavicle
     direction -0.964103 0.264019 -0.0282629   
     length 3.54491  
     axis 0 0 0   XYZ 
    dof ry rz
    limits (-10.0 20.0)
           (-20.0 0.0)
  end
  begin
     id 25 
     name rhumerus
     direction -1 -4.48964e-011 -2.45032e-027  
     length 5.33589   
     axis 180 30 90   XYZ
    dof rx ry rz
    limits (-90.0 60.0)
           (-90.0 90.0)
           (-90.0 90.0)
  end
  begin
     id 26 
     name rradius
     direction -1 -4.48987e-011 -1.55093e-027   
     length 3.64134   
     axis 180 30 90   XYZ
    dof rx
    limits (-10.0 170.0)
  end
  begin
     id 27 
     name rwrist
     direction -1 -4.4897e-011 -1.14128e-026   
     length 1.82067   
     axis 6.88575e-015 -90 -90   XYZ
    dof ry
    limits (-180.0 0.0)
  end
  begin
     id 28
     name rhand
     direction -1 -4.49021e-011 -2.28301e-026   
     length 0.734811   
     axis 1.45643e-014 -90 -90   XYZ
    dof rx rz
    limits (-90.0 90.0)
           (-45.0 45.0)
  end
  begin
     id 29
     name rfingers
     direction -1 -4.48862e-011 -4.56319e-026   
     length 0.592424   
     axis 2.91283e-014 -90 -90   XYZ
    dof rx
    limits (0.0 90.0)
  end
  begin
     id 30
     name rthumb
     direction -0.707107 -6.34978e-011 0.707107   
     length 0.850605   
     axis -90 -45 2.25915e-014   XYZ
    dof rx rz
    limits (-45.0 45.0)
           (-45.0 45.0)
  end
:hierarchy
  begin
    root lhipjoint rhipjoint lowerback
    lhipjoint lfemur
    lfemur ltibia
    ltibia lfoot
    lfoot ltoes
    rhipjoint rfemur
    rfemur rtibia
    rtibia rfoot
    rfoot rtoes
    lowerback upperback
    upperback thorax
    thorax lowerneck lclavicle rclavicle
    lowerneck upperneck
    upperneck head
    lclavicle lhumerus
    lhumerus lradius
    lradius lwrist
    lwrist lhand lthumb
    lhand lfingers
    rclavicle rhumerus
    rhumerus rradius
    rradius rwrist
    rwrist rhand rthumb
    rhand rfingers
  end

#!OML:ASF F:\VICON\USERDATA\INSTALL\rory3\rory3.ASF
:FULLY-SPECIFIED
:DEGREES
1
root 0.650962 17.7816 9.80564 -174.41 -2.89759 -179.439
lowerback -0.49794 0.0487317 -5.70082
upperback -0.5965 0.0763786 1.57551
thorax -0.345808 0.0617419 4.83032
lowerneck -19.4983 0.599828 -8.50516
upperneck 36.96 0.144762 2.25818
head 16.5791 -1.90533 2.20739
rclavicle 2.3264e-015 1.04859e-014
rhumerus -34.2941 -8.23818 -79.59
rradius 33.2748
rwrist 21.9046
rhand -18.4719 2.26519
rfingers 7.12502
rthumb 7.81493 -27.5704
lclavicle 2.3264e-015 1.04859e-014
lhumerus -28.2387 10.1768 84.6116
lradius 26.4261
lwrist -11.2146
lhand -11.7543 25.8363
lfingers 7.12502
lthumb 14.2938 55.3243
rfemur -14.4681 3.26701 18.3075
rtibia 30.9942
rfoot -22.3036 -6.32646
rtoes 10.242
lfemur -9.93907 -1.04126 -21.2657
ltibia 22.6213
lfoot -15.3494 1.44161
ltoes -9.35588
2
root 0.64815 17.7796 9.8048 -174.437 -2.97717 -179.444
lowerback -0.459977 0.029271 -5.71063
upperback -0.617651 0.0477047 1.57309
thorax -0.385368 0.0491424 4.83329
lowerneck -19.405 0.610739 -8.46059
upperneck 36.9785 0.116536 2.25681
head 16.5674 -1.9169 2.19192
rclavicle -5.59548e-015 6.28657e-015
rhumerus -34.2673 -8.27253 -79.6095
rradius 33.1608
rwrist 22.0487
rhand -18.6359 2.63806
rfingers 7.12502
rthumb 7.65662 -27.2033
lclavicle -5.59548e-015 6.28657e-015
lhumerus -28.2939 10.2031 84.5394
lradius 26.3313
lwrist -11.2187
lhand -11.8352 26.0615
lfingers 7.12502
lthumb 14.2158 55.5551
rfemur -14.3971 3.36022 18.2969
rtibia 30.9533
rfoot -22.3832 -6.36239
rtoes 10.7344
lfemur -9.90118 -1.12705 -21.2711
ltibia 22.5723
lfoot -15.2615 1.40788
ltoes -9.44636
3
root 0.644854 17.7793 9.80176 -174.503 -3.03633 -179.393
lowerback -0.424928 0.0097567 -5.65222
upperback -0.612191 0.0196525 1.60179
thorax -0.3958 0.0350634 4.83002
lowerneck -19.3137 0.62477 -8.53512
upperneck 36.9909 0.108118 2.33991
head 16.5506 -1.92456 2.23879
rclavicle -2.04065e-015 8.69683e-016
rhumerus -34.2874 -8.26226 -79.6265
rradius 33.1475
rwrist 22.0751
rhand -18.8214 2.79681
rfingers 7.12502
rthumb 7.47757 -27.051
lclavicle -2.04065e-015 8.69683e-016
lhumerus -28.3883 10.4073 84.4228
lradius 26.2715
lwrist -11.3609
lhand -11.9453 26.0367
lfingers 7.12502
lthumb 14.1097 55.5377
rfemur -14.2841 3.35841 18.3595
rtibia 30.9111
rfoot -22.4118 -6.44335
rtoes 10.4663
lfemur -9.81633 -1.21357 -21.2228
ltibia 22.5582
lfoot -15.2514 1.41244
ltoes -9.22528
4
root 0.64198 17.7822 9.79882 -174.518 -3.09349 -179.36
lowerback -0.462208 -0.00437551 -5.60843
upperback -0.565267 0.00399117 1.62592
thorax -0.324414 0.0237897 4.83029
lowerneck -19.3055 0.61454 -8.50994
upperneck 36.9417 0.127395 2.25177
head 16.5231 -1.92026 2.19919
rclavicle 1.31074e-015 7.30534e-015
rhumerus -34.1869 -8.2748 -79.671
rradius 33.1593
rwrist 21.9824
rhand -18.9421 2.90605
rfingers 7.12502
rthumb 7.36105 -26.9459
lclavicle 1.31074e-015 7.30534e-015
lhumerus -28.3589 10.4603 84.3561
lradius 26.2227
lwrist -11.3887
lhand -11.823 25.8257
lfingers 7.12502
lthumb 14.2276 55.3184
rfemur -14.243 3.29572 18.3983
rtibia 30.8926
rfoot -22.3962 -6.53783
rtoes 10.0169
lfemur -9.77751 -1.20909 -21.1954
ltibia 22.5241
lfoot -15.2807 1.36037
ltoes -9.4873
5
root 0.640811 17.7823 9.79773 -174.492 -3.09191 -179.392
lowerback -0.542666 -6.5025e-005 -5.64395
upperback -0.515088 0.0158164 1.61289
thorax -0.228958 0.025791 4.83691
lowerneck -19.3334 0.574874 -8.53015
upperneck 36.8701 0.096154 2.26167
head 16.4958 -1.92393 2.20258
rclavicle 6.36111e-015 1.31695e-015
rhumerus -34.0629 -8.14671 -79.8051
rradius 33.2795
rwrist 21.7012
rhand -18.8879 2.77002
rfingers 7.12502
rthumb 7.41339 -27.0801
lclavicle 6.36111e-015 1.31695e-015
lhumerus -28.2677 10.5198 84.2841
lradius 26.1468
lwrist -11.4341
lhand -11.8079 25.5599
lfingers 7.12502
lthumb 14.2421 55.0515
rfemur -14.2553 3.38469 18.3566
rtibia 30.8862
rfoot -22.4474 -6.6049
rtoes 9.96711
lfemur -9.7781 -1.2694 -21.2437
ltibia 22.4925
lfoot -15.2783 1.4993
ltoes -9.69268
6
root 0.638576 17.7823 9.79791 -174.479 -3.09264 -179.435
lowerback -0.523175 0.00764469 -5.69107
upperback -0.512897 0.0253465 1.61193
thorax -0.238913 0.0310358 4.86268
lowerneck -19.3708 0.551795 -8.566
upperneck 36.8818 0.0779548 2.26809
head 16.5128 -1.93524 2.20871
rclavicle 7.27738e-015 -1.69464e-014
rhumerus -34.0486 -8.0283 -79.8779
rradius 33.4334
rwrist 21.609
rhand -18.8203 2.47084
rfingers 7.12502
rthumb 7.47857 -27.377
lclavicle 7.27738e-015 -1.69464e-014
lhumerus -28.2725 10.6119 84.2424
lradius 26.1392
lwrist -11.4841
lhand -11.783 25.7333
lfingers 7.12502
lthumb 14.2662 55.2233
rfemur -14.2749 3.40935 18.2932
rtibia 30.8928
rfoot -22.4706 -6.5863
rtoes 10.0768
lfemur -9.77044 -1.28351 -21.3058
ltibia 22.462
lfoot -15.2381 1.58951
ltoes -9.95816
7
root 0.637609 17.7826 9.7993 -174.487 -3.14013 -179.48
lowerback -0.423122 -0.0034033 -5.76508
upperback -0.551065 0.00414578 1.62979
thorax -0.331942 0.0245568 4.92327
lowerneck -19.3025 0.55194 -8.61041
upperneck 36.8427 0.0889996 2.26709
head 16.4751 -1.93576 2.2174
rclavicle -6.9264e-016 4.57205e-015
rhumerus -34.0917 -7.95425 -79.8704
rradius 33.4687
rwrist 21.7539
rhand -18.7434 2.24397
rfingers 7.12502
rthumb 7.5528 -27.6012
lclavicle -6.9264e-016 4.57205e-015
lhumerus -28.3316 10.6841 84.1982
lradius 26.0971
lwrist -11.4527
lhand -11.6929 26.1317
lfingers 7.12502
lthumb 14.3529 55.6155
rfemur -14.2601 3.45794 18.2471
rtibia 30.897
rfoot -22.5333 -6.67858
rtoes 10.1639
lfemur -9.76376 -1.36636 -21.3496
ltibia 22.441
lfoot -15.1818 1.54258
ltoes -9.80526
8
root 0.636706 17.782 9.79902 -174.507 -3.17264 -179.476
lowerback -0.35314 0.000713099 -5.76062
upperback -0.564308 0.00536064 1.62889
thorax -0.385063 0.0272023 4.91981
lowerneck -19.2892 0.588577 -8.68136
upperneck 36.8502 0.1261 2.38477
head 16.4709 -1.91396 2.28925
rclavicle 2.29224e-015 -4.67144e-015
rhumerus -34.0816 -8.00787 -79.8612
rradius 33.4128
rwrist 21.9263
rhand -18.7161 2.52667
rfingers 7.12502
rthumb 7.57922 -27.3175
lclavicle 2.29224e-015 -4.67144e-015
lhumerus -28.3802 10.5704 84.1573
lradius 26.037
lwrist -11.2655
lhand -11.8424 26.3417
lfingers 7.12502
lthumb 14.2089 55.8357
rfemur -14.236 3.43027 18.2567
rtibia 30.8896
rfoot -22.5405 -6.70407
rtoes 10.0539
lfemur -9.75017 -1.41931 -21.3477
ltibia 22.4419
lfoot -15.1468 1.49042
ltoes -9.6747
9
root 0.633526 17.7825 9.79669 -174.49 -3.25412 -179.444
lowerback -0.334668 -0.0152943 -5.69803
upperback -0.571518 -0.0173933 1.6334
thorax -0.3999 0.016146 4.88897
lowerneck -19.3611 0.607194 -8.73444
upperneck 36.8974 0.154449 2.46025
head 16.5097 -1.90084 2.33848
rclavicle -5.51627e-015 -2.68359e-015
rhumerus -34.0469 -8.07752 -79.8789
rradius 33.4092
rwrist 21.9706
rhand -18.8513 2.7679
rfingers 7.12502
rthumb 7.4487 -27.081
lclavicle -5.51627e-015 -2.68359e-015
lhumerus -28.4259 10.5671 84.0921
lradius 25.9996
lwrist -11.2223
lhand -11.9698 26.2977
lfingers 7.12502
lthumb 14.0861 55.8003
rfemur -14.2138 3.341 18.2871
rtibia 30.8563
rfoot -22.5041 -6.66164
rtoes 10.0371
lfemur -9.77967 -1.50127 -21.3177
ltibia 22.4788
lfoot -15.1789 1.4157
ltoes -9.44409
10
root 0.630527 17.7821 9.79608 -174.484 -3.30699 -179.451
lowerback -0.270532 -0.0217518 -5.68116
upperback -0.597323 -0.0302876 1.62815
thorax -0.460903 0.0121368 4.87398
lowerneck -19.3807 0.599317 -8.75706
upperneck 36.9387 0.135409 2.48559
head 16.5372 -1.91227 2.35009
rclavicle -5.77407e-015 -4.96962e-016
rhumerus -34.0855 -8.08938 -79.9183
rradius 33.5358
rwrist 21.8942
rhand -18.7508 2.77733
rfingers 7.12502
rthumb 7.54568 -27.0681
lclavicle -5.77407e-015 -4.96962e-016
lhumerus -28.5209 10.6083 84.0085
lradius 25.9951
lwrist -11.2899
lhand -11.9034 26.1573
lfingers 7.12502
lthumb 14.1501 55.6554
rfemur -14.1941 3.34293 18.2732
rtibia 30.8193
rfoot -22.4887 -6.65828
rtoes 10.1325
lfemur -9.80478 -1.54358 -21.3263
ltibia 22.5272
lfoot -15.2279 1.37195
ltoes -9.0902
